<?xml version="1.0" encoding="UTF-8"?>
<!DOCTYPE svg PUBLIC "-//W3C//DTD SVG 1.1//EN" "http://www.w3.org/Graphics/SVG/1.1/DTD/svg11.dtd">
<!-- Creator: CorelDRAW X7 -->
<svg xmlns="http://www.w3.org/2000/svg" xml:space="preserve" width="1500px" height="1500px" version="1.1" style="shape-rendering:geometricPrecision; text-rendering:geometricPrecision; image-rendering:optimizeQuality; fill-rule:evenodd; clip-rule:evenodd"
viewBox="0 0 1500 1500"
 xmlns:xlink="http://www.w3.org/1999/xlink">
 <defs>
  <style type="text/css">
   <![CDATA[
    .fil0 {fill:#FEFEFE}
    .fil3 {fill:#373435}
    .fil1 {fill:#F89833}
    .fil4 {fill:#F89833}
    .fil2 {fill:#282829}
   ]]>
  </style>
 </defs>
 <g id="Layer_x0020_1">
  <metadata id="CorelCorpID_0Corel-Layer"/>
  <g id="_368709024">
   <path class="fil0" d="M660 933l90 275 90 -275 146 -263 232 61c0,0 201,240 205,223 5,-16 68,15 68,15 -86,322 -427,476 -741,476 -314,0 -655,-154 -741,-476 0,0 63,-31 68,-15 4,17 205,-223 205,-223l232 -61 146 263z"/>
   <path class="fil1" d="M9 969c86,-50 179,-520 203,-788 17,-198 159,-135 237,-1 62,107 124,213 187,320 40,-10 76,-15 114,-15 38,0 74,5 114,15 63,-107 125,-213 187,-320 78,-134 220,-197 237,1 24,268 117,738 203,788 -204,68 -362,-438 -601,-25 -47,82 -72,179 -95,264 -15,0 -30,0 -45,0 -15,0 -30,0 -45,0 -23,-85 -48,-182 -95,-264 -239,-413 -397,93 -601,25z"/>
   <ellipse class="fil2" cx="414" cy="1057" rx="134" ry="146"/>
   <path class="fil3" d="M750 1087c62,0 112,20 112,59 0,39 -50,105 -112,105 -62,0 -112,-66 -112,-105 0,-39 50,-59 112,-59z"/>
   <ellipse class="fil2" cx="1086" cy="1057" rx="134" ry="146"/>
   <path class="fil2" d="M750 1087c-62,0 -112,20 -112,59 0,39 50,105 112,105 62,0 112,-66 112,-105 0,-39 -50,-59 -112,-59z"/>
   <ellipse class="fil0" cx="1154" cy="1003" rx="27" ry="34"/>
   <ellipse class="fil0" cx="461" cy="1003" rx="27" ry="34"/>
   <path class="fil4" d="M487 1169c-56,0 -104,-37 -124,-90 -7,-40 -82,-41 -82,0 10,70 66,124 133,124 33,0 63,-13 86,-35 -4,1 -9,1 -13,1z"/>
   <path class="fil4" d="M1159 1169c-56,0 -104,-37 -124,-90 -6,-40 -81,-41 -81,0 9,70 65,124 132,124 33,0 63,-13 86,-35 -4,1 -8,1 -13,1z"/>
   <g>
    <path class="fil0" d="M515 524c0,0 -188,-421 -201,-257 -13,165 -72,393 -25,397 46,4 128,-100 226,-140z"/>
    <path class="fil0" d="M985 524c0,0 188,-421 201,-257 13,165 72,393 25,397 -46,4 -128,-100 -226,-140z"/>
   </g>
  </g>
 </g>
</svg>
